solid OpenSCAD_Model
  facet normal -1 0 0
    outer loop
      vertex 0 21 2
      vertex 0 21 0
      vertex 0 2 2
    endloop
  endfacet
  facet normal -1 0 -0
    outer loop
      vertex 0 0 0
      vertex 0 0 14
      vertex 0 2 2
    endloop
  endfacet
  facet normal -1 -0 0
    outer loop
      vertex 0 0 0
      vertex 0 2 2
      vertex 0 21 0
    endloop
  endfacet
  facet normal -1 0 0
    outer loop
      vertex 0 2 2
      vertex 0 0 14
      vertex 0 2 14
    endloop
  endfacet
  facet normal 0 -1 0
    outer loop
      vertex 4.5 0 2
      vertex 0 0 0
      vertex 32 0 0
    endloop
  endfacet
  facet normal 0 -1 0
    outer loop
      vertex 4.5 0 2
      vertex 4.5 0 14
      vertex 0 0 14
    endloop
  endfacet
  facet normal 0 -1 0
    outer loop
      vertex 32 0 14
      vertex 27.5 0 14
      vertex 32 0 0
    endloop
  endfacet
  facet normal 0 -1 0
    outer loop
      vertex 27.5 0 14
      vertex 27.5 0 2
      vertex 32 0 0
    endloop
  endfacet
  facet normal 0 -1 0
    outer loop
      vertex 0 0 14
      vertex 0 0 0
      vertex 4.5 0 2
    endloop
  endfacet
  facet normal 0 -1 0
    outer loop
      vertex 27.5 0 2
      vertex 4.5 0 2
      vertex 32 0 0
    endloop
  endfacet
  facet normal -0 -0 -1
    outer loop
      vertex 0 0 0
      vertex 0 21 0
      vertex 32 0 0
    endloop
  endfacet
  facet normal 0 0 -1
    outer loop
      vertex 32 0 0
      vertex 0 21 0
      vertex 32 21 0
    endloop
  endfacet
  facet normal 0 1 0
    outer loop
      vertex 0 21 0
      vertex 0 21 2
      vertex 32 21 0
    endloop
  endfacet
  facet normal 0 1 0
    outer loop
      vertex 32 21 0
      vertex 0 21 2
      vertex 4.5 21 2
    endloop
  endfacet
  facet normal -0 1 0
    outer loop
      vertex 27.5 21 2
      vertex 4.5 21 2
      vertex 4.5 21 14
    endloop
  endfacet
  facet normal 0 1 0
    outer loop
      vertex 32 21 0
      vertex 4.5 21 2
      vertex 27.5 21 2
    endloop
  endfacet
  facet normal 0 1 -0
    outer loop
      vertex 30 21 14
      vertex 32 21 0
      vertex 30 21 2
    endloop
  endfacet
  facet normal 0 1 0
    outer loop
      vertex 32 21 0
      vertex 30 21 14
      vertex 32 21 14
    endloop
  endfacet
  facet normal 0 1 0
    outer loop
      vertex 27.5 21 2
      vertex 4.5 21 14
      vertex 27.5 21 14
    endloop
  endfacet
  facet normal 0 1 -0
    outer loop
      vertex 30 21 2
      vertex 32 21 0
      vertex 27.5 21 2
    endloop
  endfacet
  facet normal 0 0 1
    outer loop
      vertex 27.5 2 2
      vertex 32 2 2
      vertex 0 21 2
    endloop
  endfacet
  facet normal 0 -0 1
    outer loop
      vertex 0 21 2
      vertex 0 2 2
      vertex 4.5 2 2
    endloop
  endfacet
  facet normal 0 0 1
    outer loop
      vertex 27.5 0 2
      vertex 0 21 2
      vertex 4.5 2 2
    endloop
  endfacet
  facet normal 0 0 1
    outer loop
      vertex 4.5 0 2
      vertex 27.5 0 2
      vertex 4.5 2 2
    endloop
  endfacet
  facet normal 0 0 1
    outer loop
      vertex 27.5 0 2
      vertex 27.5 2 2
      vertex 0 21 2
    endloop
  endfacet
  facet normal 0 0 1
    outer loop
      vertex 32 2 2
      vertex 30 7 2
      vertex 0 21 2
    endloop
  endfacet
  facet normal 0 0 1
    outer loop
      vertex 32 2 2
      vertex 32 7 2
      vertex 30 7 2
    endloop
  endfacet
  facet normal 0 0 1
    outer loop
      vertex 4.5 19 2
      vertex 4.5 21 2
      vertex 0 21 2
    endloop
  endfacet
  facet normal 0 0 1
    outer loop
      vertex 30 7 2
      vertex 4.5 19 2
      vertex 0 21 2
    endloop
  endfacet
  facet normal 0 0 1
    outer loop
      vertex 30 7 2
      vertex 27.5 19 2
      vertex 4.5 19 2
    endloop
  endfacet
  facet normal 0 0 1
    outer loop
      vertex 30 7 2
      vertex 27.5 21 2
      vertex 27.5 19 2
    endloop
  endfacet
  facet normal 0 0 1
    outer loop
      vertex 30 7 2
      vertex 30 21 2
      vertex 27.5 21 2
    endloop
  endfacet
  facet normal 0 1 0
    outer loop
      vertex 0 2 2
      vertex 0 2 14
      vertex 4.5 2 2
    endloop
  endfacet
  facet normal 0 1 0
    outer loop
      vertex 4.5 2 2
      vertex 0 2 14
      vertex 4.5 2 14
    endloop
  endfacet
  facet normal 0 -0 1
    outer loop
      vertex 0 2 14
      vertex 0 0 14
      vertex 4.5 0 14
    endloop
  endfacet
  facet normal 0 0 1
    outer loop
      vertex 4.5 2 14
      vertex 0 2 14
      vertex 4.5 0 14
    endloop
  endfacet
  facet normal 1 0 -0
    outer loop
      vertex 4.5 0 14
      vertex 4.5 0 2
      vertex 4.5 2 2
    endloop
  endfacet
  facet normal 1 0 0
    outer loop
      vertex 4.5 2 14
      vertex 4.5 0 14
      vertex 4.5 2 2
    endloop
  endfacet
  facet normal -1 -0 -0
    outer loop
      vertex 27.5 0 2
      vertex 27.5 0 14
      vertex 27.5 2 2
    endloop
  endfacet
  facet normal -1 0 0
    outer loop
      vertex 27.5 2 2
      vertex 27.5 0 14
      vertex 27.5 2 14
    endloop
  endfacet
  facet normal 0 -0 1
    outer loop
      vertex 27.5 2 14
      vertex 27.5 0 14
      vertex 32 0 14
    endloop
  endfacet
  facet normal 0 0 1
    outer loop
      vertex 32 2 14
      vertex 27.5 2 14
      vertex 32 0 14
    endloop
  endfacet
  facet normal 1 0 -0
    outer loop
      vertex 32 7 2
      vertex 32 0 0
      vertex 32 21 0
    endloop
  endfacet
  facet normal 1 0 0
    outer loop
      vertex 32 2 2
      vertex 32 2 14
      vertex 32 0 14
    endloop
  endfacet
  facet normal 1 0 0
    outer loop
      vertex 32 21 14
      vertex 32 7 14
      vertex 32 21 0
    endloop
  endfacet
  facet normal 1 0 -0
    outer loop
      vertex 32 2 2
      vertex 32 0 0
      vertex 32 7 2
    endloop
  endfacet
  facet normal 1 0 -0
    outer loop
      vertex 32 0 14
      vertex 32 0 0
      vertex 32 2 2
    endloop
  endfacet
  facet normal 1 0 -0
    outer loop
      vertex 32 7 14
      vertex 32 7 2
      vertex 32 21 0
    endloop
  endfacet
  facet normal 0 -0 1
    outer loop
      vertex 30 21 14
      vertex 30 7 14
      vertex 32 7 14
    endloop
  endfacet
  facet normal 0 0 1
    outer loop
      vertex 32 21 14
      vertex 30 21 14
      vertex 32 7 14
    endloop
  endfacet
  facet normal -1 -0 -0
    outer loop
      vertex 30 7 2
      vertex 30 7 14
      vertex 30 21 2
    endloop
  endfacet
  facet normal -1 0 0
    outer loop
      vertex 30 21 2
      vertex 30 7 14
      vertex 30 21 14
    endloop
  endfacet
  facet normal 1 0 -0
    outer loop
      vertex 27.5 19 14
      vertex 27.5 19 2
      vertex 27.5 21 2
    endloop
  endfacet
  facet normal 1 0 0
    outer loop
      vertex 27.5 21 14
      vertex 27.5 19 14
      vertex 27.5 21 2
    endloop
  endfacet
  facet normal 0 -0 1
    outer loop
      vertex 4.5 21 14
      vertex 4.5 19 14
      vertex 27.5 19 14
    endloop
  endfacet
  facet normal 0 0 1
    outer loop
      vertex 27.5 21 14
      vertex 4.5 21 14
      vertex 27.5 19 14
    endloop
  endfacet
  facet normal -1 -0 -0
    outer loop
      vertex 4.5 19 2
      vertex 4.5 19 14
      vertex 4.5 21 2
    endloop
  endfacet
  facet normal -1 0 0
    outer loop
      vertex 4.5 21 2
      vertex 4.5 19 14
      vertex 4.5 21 14
    endloop
  endfacet
  facet normal 0 -1 0
    outer loop
      vertex 4.5 19 14
      vertex 4.5 19 2
      vertex 27.5 19 2
    endloop
  endfacet
  facet normal 0 -1 0
    outer loop
      vertex 27.5 19 14
      vertex 4.5 19 14
      vertex 27.5 19 2
    endloop
  endfacet
  facet normal 0 -1 0
    outer loop
      vertex 30 7 14
      vertex 30 7 2
      vertex 32 7 2
    endloop
  endfacet
  facet normal 0 -1 0
    outer loop
      vertex 32 7 14
      vertex 30 7 14
      vertex 32 7 2
    endloop
  endfacet
  facet normal 0 1 0
    outer loop
      vertex 27.5 2 2
      vertex 27.5 2 14
      vertex 32 2 2
    endloop
  endfacet
  facet normal 0 1 0
    outer loop
      vertex 32 2 2
      vertex 27.5 2 14
      vertex 32 2 14
    endloop
  endfacet
endsolid OpenSCAD_Model
